<?xml version="1.0" encoding="utf-8"?>
<!-- Generator: Adobe Illustrator 16.0.0, SVG Export Plug-In . SVG Version: 6.00 Build 0)  -->
<!DOCTYPE svg PUBLIC "-//W3C//DTD SVG 1.1//EN" "http://www.w3.org/Graphics/SVG/1.1/DTD/svg11.dtd">
<svg version="1.1" id="Layer_1" xmlns="http://www.w3.org/2000/svg" xmlns:xlink="http://www.w3.org/1999/xlink" x="0px" y="0px"
	 width="767.357px" height="657.092px" viewBox="0 0 767.357 657.092" enable-background="new 0 0 767.357 657.092"
	 xml:space="preserve">
<path fill-rule="evenodd" clip-rule="evenodd" fill="#3E4999" d="M505.612,57.632c4.663,0.59,8.826,2.691,13.047,4.516
	c13.071,5.652,24.917,13.37,36.203,21.982c2.127,1.623,4.163,3.364,6.241,5.051c-1.158,0.968-0.76,2.305-0.76,3.503
	c-0.008,74.318,0.003,148.638,0.012,222.956c-8.622,1.184-17.313,1.338-25.954,0.839c-9.857-0.569-19.646-1.988-28.832-6.016
	c0-8.74,0-17.48,0.001-26.219C505.585,208.707,505.599,133.169,505.612,57.632z"/>
<path fill-rule="evenodd" clip-rule="evenodd" fill="#2C4F9E" d="M505.612,57.632c-0.014,75.537-0.027,151.075-0.042,226.612
	c-0.001,8.739-0.001,17.479-0.001,26.219c-6.65-1.331-12.63-4.47-18.42-7.686c-12.939-7.185-24.488-16.313-34.829-26.931
	c-0.337-0.345-0.551-0.81-0.821-1.219c0.036-1.749,0.101-3.498,0.102-5.247c0.008-71.509,0.011-143.017,0.014-214.526
	c8.961-2.218,17.874-3.594,27.274-2.594c8.801,0.937,17.432,2.249,25.897,4.746C505.096,57.099,505.339,57.418,505.612,57.632z"/>
<path fill-rule="evenodd" clip-rule="evenodd" fill="#41287A" d="M560.355,315.64c-0.009-74.318-0.02-148.637-0.012-222.956
	c0-1.198-0.398-2.535,0.76-3.503c16.827,14.183,30.716,30.849,42.035,49.694c5.339,8.888,10.734,17.742,14.262,27.564
	c0.006,40.57,0.012,81.141,0.019,121.711c-12.204,13.808-27.687,21.754-45.544,25.417
	C568.055,314.352,564.196,314.954,560.355,315.64z"/>
<path fill-rule="evenodd" clip-rule="evenodd" fill="#FFD802" d="M173.175,501.142c-5.204-2.662-9.208-6.909-13.696-10.5
	c-7.902-6.322-14.744-13.793-21.77-21.031c-9.126-9.404-17.303-19.635-24.998-30.243c-0.191-0.265-0.133-0.71-0.192-1.072
	c1.029-1.475,0.584-3.152,0.585-4.737c0.025-39.845,0.018-79.691,0.027-119.536c0-1.621,0.104-3.242,0.16-4.863
	c9.385,3.611,19.145,6.087,28.622,9.389c11.429,3.982,21.765,10.123,31.423,17.397c-0.021,41.83-0.036,83.661-0.067,125.492
	C173.261,474.672,173.208,487.906,173.175,501.142z"/>
<path fill-rule="evenodd" clip-rule="evenodd" fill="#4588C8" d="M451.614,54.855c-0.003,71.509-0.006,143.017-0.014,214.526
	c-0.001,1.749-0.065,3.498-0.102,5.247c-10.094-9.049-18.409-19.616-26.445-30.473c-11.158-15.077-19.205-31.742-25.953-49.118
	c-0.176-0.453-0.16-0.98-0.232-1.472c0.055-1.622,0.156-3.243,0.157-4.865c0.016-36.871,0.02-73.743,0.026-110.614
	c2.599,0.22,4.384,1.611,5.258,3.999c1.205,3.294,2.653,2.813,4.688,0.664c7.255-7.661,14.969-14.803,23.876-20.559
	C438.63,58.47,445.089,56.588,451.614,54.855z"/>
<path fill-rule="evenodd" clip-rule="evenodd" fill="#B4CC08" d="M173.175,501.142c0.033-13.235,0.085-26.47,0.095-39.705
	c0.031-41.831,0.046-83.662,0.067-125.492c20.688,14.889,38.755,32.668,56.296,51.03c-1.294,1.066-0.809,2.543-0.81,3.854
	c-0.018,47.219-0.008,94.438-0.002,141.656c-19.766-7.045-37.489-17.812-54.461-29.936
	C173.877,502.204,173.566,501.616,173.175,501.142z"/>
<path fill-rule="evenodd" clip-rule="evenodd" fill="#292627" d="M660.105,233.143c14.305,7.102,27.841,15.337,38.687,27.294
	c4.695,5.175,8.258,11.045,6.265,18.502c-1.414,5.293-5.3,8.947-10.066,10.896c-11.546,4.723-11.453,15.415-6.48,24.121
	c5.279,9.242,12.129,17.287,19.201,25.151c11.326,12.596,23.25,24.66,33.627,38.099c1.984,2.57,3.764,5.219,5.211,8.125
	c4.838,9.713,2.645,18.475-6.156,24.8c-7.154,5.143-14.563,9.955-20.955,16.098c-8.645,8.309-12.168,18.757-12.833,30.423
	c-0.404,7.069,0.76,14.141-0.542,21.235c-2.601,14.181-10.557,24.653-21.959,32.856c-14.235,10.241-30.619,15.344-47.353,19.522
	c-20.025,5.001-40.366,8.002-60.918,9.892c-16.24,1.494-32.497,2.626-48.764,3.723c-26.275,1.772-52.477,4.203-78.01,11.185
	c-10.959,2.997-21.648,6.691-31.538,12.422c-3.71,2.151-6.923,4.875-9.582,8.214c-2.987,3.751-2.931,5.983,0.299,9.498
	c6.032,6.564,14.042,9.562,22.322,11.856c11.043,3.06,22.403,4.321,33.783,5.271c23.512,1.961,47.102,2.27,70.659,3.291
	c15.785,0.684,31.603,1.457,47.195,4.291c8.894,1.616,17.726,3.539,25.296,9.017c6.45,4.668,9.084,12.106,6.79,19.706
	c-1.679,5.563-2.942,11.226-3.7,16.981c-0.229,1.733-0.832,2.345-2.579,2.271c-2.996-0.126-6.015-0.223-8.995,0.021
	c-2.612,0.215-2.932-0.859-2.427-2.997c1.477-6.257,2.555-12.631,4.45-18.755c1.272-4.109-0.443-5.962-3.534-7.747
	c-5.898-3.405-12.461-4.688-19.001-5.762c-18.351-3.015-36.897-3.845-55.45-4.719c-20.8-0.981-41.64-1.546-62.359-3.757
	c-16.896-1.803-33.75-4.06-49.165-12.002c-7.043-3.629-12.923-8.71-15.925-16.109c-2.849-7.021-0.32-13.414,4.521-18.799
	c8.872-9.867,20.824-14.569,32.926-18.714c15.89-5.443,32.333-8.55,48.971-10.781c14.828-1.989,29.716-2.945,44.64-3.769
	c17.792-0.981,35.596-2.038,53.325-3.77c25.666-2.507,51.087-6.53,75.666-14.802c10.955-3.687,21.133-8.773,29.536-16.726
	c8.936-8.455,14.188-18.706,13.391-31.495c-0.858-13.768,0.827-26.988,8.829-38.805c4.926-7.274,11.718-12.48,18.694-17.51
	c3.507-2.529,7.146-4.872,10.706-7.328c4.535-3.132,6.025-7.431,4.168-12.621c-2.7-7.543-8.18-13.241-13.266-19.125
	c-10.915-12.629-22.157-24.977-33.003-37.665c-5.23-6.117-9.88-12.729-13.253-20.131c-5.796-12.716-2.483-22.454,9.892-29.055
	c1.201-0.641,2.372-1.356,3.482-2.144c5.245-3.726,6.217-8.211,2.908-13.845c-4.335-7.38-10.886-12.614-17.661-17.497
	c-6.842-4.93-14.023-9.354-21.568-13.199c-2.101-1.07-3.157-0.699-4.291,0.961c-0.019-1.978-0.038-3.956-0.057-5.933
	C656.139,233.252,658.123,233.198,660.105,233.143z"/>
<path fill-rule="evenodd" clip-rule="evenodd" fill="#76B82B" d="M228.822,532.485c-0.006-47.219-0.016-94.438,0.002-141.656
	c0.001-1.311-0.484-2.788,0.81-3.854c10.632,10.563,21.387,21.009,31.854,31.735c6.679,6.845,14.272,12.44,22.14,17.746
	c-0.036,34.265-0.071,68.531-0.106,102.797c-2.748,1.466-5.536,0.131-8.3,0.184c-11.918,0.227-23.676-1.239-35.373-3.188
	C236.045,535.615,232.344,534.192,228.822,532.485z"/>
<path fill-rule="evenodd" clip-rule="evenodd" fill="#6DC6DA" d="M399.125,485.207c-7.929,4.859-16.188,8.923-25.419,10.702
	c-1.927,0.371-3.121,1.899-4.503,3.147c-9.422,8.5-18.714,17.177-30.108,23.11c-0.06-1.491-0.17-2.982-0.171-4.473
	c-0.015-28.282-0.015-56.563-0.019-84.846c4.621-3.132,9.261-6.187,14.256-8.764c5.921-3.055,12.197-4.97,18.658-5.406
	c10.49-0.708,16.626-5.943,20.126-15.593c1.302-3.592,2.351-7.615,5.5-10.401c1.302-1.151,0.852-2.667,0.45-4.167
	c-4.265-15.902-11.156-30.636-19.853-44.553c-9.65-15.443-20.349-30.086-32.767-43.467c-2.172-2.339-4.485-4.625-6.406-7.218
	c0.075-3.03,0.15-6.06,0.224-9.091c5.373,5.306,11.007,10.376,16.055,15.976c6.609,7.333,12.827,15.027,19.083,22.671
	c9.62,11.754,17.958,24.366,24.881,37.897c-0.027,9.498-0.081,18.995-0.075,28.493C399.055,421.22,399.094,453.213,399.125,485.207z
	"/>
<path fill-rule="evenodd" clip-rule="evenodd" fill="#ED6B1D" d="M113.292,309.159c-0.056,1.621-0.16,3.242-0.16,4.863
	c-0.009,39.845-0.002,79.691-0.027,119.536c-0.001,1.585,0.444,3.263-0.585,4.737c-6.94-8.758-12.193-18.547-17.241-28.447
	c-7.806-15.308-13.632-31.364-16.343-48.335c-1.966-12.309-2.278-24.768,0.375-37.117c0.506-2.352,0.336-4.329-2.011-6.018
	c-5.97-4.297-10.728-9.937-15.917-15.095c0.063-18.873,0.125-37.746,0.188-56.619c3.036,2.034,6.103,4.023,9.095,6.121
	c1.385,0.971,2.747,1.914,2.925,3.981c0.754,8.754,3.774,11.496,12.587,10.913c5.677-0.375,10.63-2.801,14.231-7.345
	c1.196-1.509,1.969-3.425,1.373-6.346c2.217,2.722,3.067,1.254,3.904-0.292c1.865-3.445,3.703-6.91,6.857-9.415
	c0.036,4.842-0.036,9.688,0.149,14.524c0.107,2.797-0.777,5.692,0.632,8.395c-3.996,4.169-8.287,8.141-10.886,13.396
	C96.205,293.195,99.024,304.274,113.292,309.159z M94.678,285.074c-4.028,0.743-7.898,1.447-11.764,2.181
	c-0.725,0.137-1.644,0.311-1.745,1.143c-0.118,0.964,0.721,1.463,1.502,1.904C88.135,293.384,91.821,291.854,94.678,285.074z"/>
<path fill-rule="evenodd" clip-rule="evenodd" fill="#4588C8" d="M399.125,485.207c-0.032-31.994-0.07-63.987-0.089-95.98
	c-0.006-9.498,0.048-18.995,0.075-28.493c4.179,5.857,6.773,12.564,10.138,18.858c0.871,1.628,1.715,3.289,2.761,4.804
	c4.156,6.021,7.479,6.91,14.095,3.672c3.241-1.587,6.795-0.967,10.149-1.781c4.705-1.142,5.511-2.041,4.853-6.242
	c-1.611-10.292-5.179-19.983-9.052-29.571c-7.999-19.803-19.01-37.867-31.825-54.882c-0.516-0.686-0.913-1.462-1.365-2.197
	c0.083-7.311,0.166-14.621,0.249-21.931c5.25,4.934,9.278,10.868,13.459,16.657c6.787,9.394,13.38,18.913,18.602,29.318
	c8.976,17.888,16.892,36.065,19.82,56.155c1.431,9.815,1.708,19.615,1.157,29.377c-0.591,10.47-3.726,20.501-7.89,30.189
	c-5.928,13.791-13.527,26.369-25.096,36.231C412.685,474.918,406.555,480.884,399.125,485.207z"/>
<path fill-rule="evenodd" clip-rule="evenodd" fill="#E52720" d="M61.57,246.664c-0.063,18.873-0.125,37.746-0.188,56.619
	c-8.717-9.989-16.683-20.44-20.989-33.229c-0.638-1.895-1.582-3.543-3.722-4.633c-2.526-1.286-3.09-4.35-3.589-6.906
	c-2.944-15.08-6.43-30.047-10.39-44.872c-4.118-15.411-5.208-31.091-3.729-46.689c1.68-17.724,7.707-34.162,21.526-46.531
	c6.382-5.713,13.431-10.597,20.941-14.77c0.017,3.369,0.043,6.739,0.047,10.109c0.034,27.459,0.065,54.919,0.096,82.378
	c-6.104,5.869-9.236,13.315-11.522,21.273c-0.23,0.802,0.119,2.382-1.485,2.642c-1.459,0.235-1.458-1.152-2.001-1.813
	c-5.616-6.823-10.415-14.09-12.91-22.734c-1.505-5.212-3.771-6.273-7.907-4.491c-1.486,0.64-2.044,1.543-1.562,3.136
	c3.04,10.032,7.685,19.149,14.353,27.339c6.239,7.664,12.942,14.804,20.511,21.141C59.877,245.325,60.729,245.988,61.57,246.664z"/>
<path fill-rule="evenodd" clip-rule="evenodd" fill="#6FBB77" d="M338.904,432.85c0.004,28.281,0.004,56.563,0.019,84.845
	c0.001,1.49,0.111,2.981,0.171,4.473c-4.734,3.839-10.253,6.239-15.802,8.568c-12.719,5.339-25.647,9.731-39.772,8.518
	c0.035-34.266,0.07-68.532,0.106-102.797c6.337,3.79,12.919,6.981,19.934,9.418c7.735,2.688,14.648,0.572,21.16-3.105
	C329.721,439.945,334.195,436.19,338.904,432.85z"/>
<path fill-rule="evenodd" clip-rule="evenodd" fill="#FFD802" d="M113.059,78.768c18.949-8.634,38.33-16.02,58.766-20.363
	c0.47-0.1,0.907-0.354,1.36-0.537c0.023,25.676,0.045,51.352,0.068,77.028c-18.854,6.457-37.191,14.121-54.818,23.444
	c-1.727,0.914-3.429,1.874-5.142,2.813c-0.056-1.62-0.158-3.24-0.16-4.86C113.1,130.451,113.081,104.609,113.059,78.768z"/>
<path fill-rule="evenodd" clip-rule="evenodd" fill="#ED6B1D" d="M113.059,78.768c0.022,25.841,0.042,51.683,0.073,77.523
	c0.002,1.621,0.104,3.241,0.16,4.86c-18.662,10.34-35.923,22.639-51.718,36.988c-0.031-27.459-0.062-54.919-0.096-82.378
	c-0.004-3.37-0.03-6.74-0.047-10.109C77.77,95.021,95.03,86.157,113.059,78.768z"/>
<path fill-rule="evenodd" clip-rule="evenodd" fill="#B4CC08" d="M173.252,134.896c-0.022-25.676-0.044-51.352-0.068-77.028
	c10.618-2.207,21.184-4.743,31.875-6.512c7.841-1.297,15.694-3.115,23.762-2.509c0,23.943,0,47.886,0,71.829
	c-11.29,2.078-22.507,4.49-33.549,7.642C187.907,130.42,180.591,132.697,173.252,134.896z"/>
<path fill-rule="evenodd" clip-rule="evenodd" fill="#6DC6DA" d="M399.051,78.085c-0.006,36.872-0.011,73.743-0.026,110.614
	c0,1.622-0.102,3.244-0.157,4.865c-3.558-9.619-5.812-19.537-7.435-29.665c-1.167-7.289-1.519-14.558-1.39-21.889
	c0.037-2.152-0.629-3.683-2.973-3.965c-2.557-0.308-3.548-2.965-5.854-3.742c-13.921-4.687-27.73-9.744-42.302-12.161
	c0.037-19.935,0.073-39.87,0.108-59.805c8.3,1.603,16.668,2.915,24.882,4.876C375.843,70.065,387.371,74.345,399.051,78.085z"/>
<path fill-rule="evenodd" clip-rule="evenodd" fill="#76B82B" d="M228.822,120.676c0-23.943,0-47.886,0-71.829
	c18.186-1.834,36.411-0.601,54.618-0.699c0.001,23.909,0.002,47.817,0.003,71.726c-5.641-0.792-11.249-0.73-16.932-0.074
	c-4.302,0.496-8.831,0.796-13.031-0.007c-6.524-1.248-12.797,0.247-19.161,0.597C232.5,120.488,230.67,120.792,228.822,120.676z"/>
<path fill-rule="evenodd" clip-rule="evenodd" fill="#6FBB77" d="M283.443,119.873c0-23.908-0.001-47.817-0.003-71.726
	c8.984,1.206,18.09-0.043,27.064,1.335c1.084,0.166,2.14,0.506,3.219,0.711c3.065,0.584,4.422,2.153,2.8,5.174
	c-1.677,3.121,0.301,4.184,2.693,4.528c6.583,0.95,13.202,1.646,19.807,2.441c-0.036,19.935-0.072,39.87-0.108,59.805
	c-6.193-0.946-12.382-1.906-18.58-2.816c-0.582-0.085-1.671-0.009-1.745,0.232c-1.386,4.51-5.168,2.862-7.794,2.602
	C301.688,121.256,292.591,120.289,283.443,119.873z"/>
<path fill-rule="evenodd" clip-rule="evenodd" fill="#724695" d="M654.156,233.308c0.019,1.977,0.038,3.955,0.057,5.933
	c-1.238,3.271-3.532,5.931-5.883,8.287c-6.529,6.548-11.493,14.057-16.003,22.092c-3.881,6.916-8.753,13.309-14.908,18.531
	c-0.007-40.571-0.013-81.141-0.019-121.711c3.093,4.879,4.676,10.413,6.712,15.737c2.215,5.792,4.119,11.704,6.274,17.898
	c1.94-6.142,3.81-11.953,5.683-17.728c1.882-5.802,1.367-12.199-0.497-18.223c-1.034-3.343-2.213-6.642-3.022-10.084
	c2.933,2.902,3.365,7.001,5.018,10.5c0.983,2.082,1.616,4.337,2.312,6.543c0.747,2.37,2.226,2.413,3.684,0.95
	c3.12-3.133,7.168-4.977,10.464-7.841C654.07,187.23,654.113,210.269,654.156,233.308z"/>
<path fill-rule="evenodd" clip-rule="evenodd" fill="#B74D97" d="M654.156,233.308c-0.043-23.039-0.086-46.078-0.13-69.116
	c8.311-3.489,12.557-13.647,9.473-23.975c-1.949-6.531-5.227-12.45-7.626-18.757c-0.566-1.488-1.225-2.94-1.84-4.409
	c0.051-1.539,0.101-3.079,0.15-4.618c4.891,5.994,7.364,13.251,10.306,20.217c4.216,9.984,6.921,20.52,8.213,31.213
	c2.833,23.456-0.629,45.935-12.568,66.685c-0.626,1.088-0.619,1.72-0.028,2.595C658.123,233.198,656.139,233.252,654.156,233.308z"
	/>
<path fill-rule="evenodd" clip-rule="evenodd" fill="#FFD802" d="M113.324,267.2c-1.409-2.703-0.525-5.597-0.632-8.395
	c-0.185-4.836-0.113-9.682-0.149-14.524c6.802-7.887,15.875-12.392,25.009-16.806c0.196,0.227,0.391,0.454,0.586,0.681
	c-1.608,0.985-3.217,1.97-4.825,2.955c-0.001,0.317-0.003,0.634-0.005,0.951c14.131-2.953,27.065,1.362,39.981,5.791
	c-0.025,4.935-0.05,9.869-0.075,14.802c-15.109-1.78-30.187-3.198-44.527,3.868C123.029,259.311,117.959,262.942,113.324,267.2z"/>
<path fill-rule="evenodd" clip-rule="evenodd" fill="#6DC6DA" d="M399.114,271.465c-0.083,7.31-0.165,14.62-0.249,21.931
	c-17.6-22.612-37.904-42.49-60.618-59.932c1.023-1.159,0.625-2.572,0.654-3.889c0.09-4.053,0.12-8.108,0.173-12.163
	c8.64,5.773,16.836,12.131,24.947,18.62c9.565,7.653,18.037,16.443,26.515,25.209C393.607,264.416,396.925,267.5,399.114,271.465z"
	/>
<path fill-rule="evenodd" clip-rule="evenodd" fill="#6FBB77" d="M339.075,217.413c-0.053,4.054-0.083,8.109-0.173,12.163
	c-0.029,1.316,0.369,2.73-0.654,3.889c-16.304-11.961-33.466-22.447-52.128-30.362c-0.902-0.382-1.735-0.926-2.602-1.395
	c-0.012-3.941-0.022-7.882-0.034-11.823C303.312,196.439,321.781,205.739,339.075,217.413z"/>
<path fill-rule="evenodd" clip-rule="evenodd" fill="#3E4999" d="M475.032,47.356c4.614-3.055,9.817-4.359,15.104-5.374
	c11.564-2.222,23.269-1.4,34.929-1.505c1.847-0.017,3.653,0.089,5.488,0.663c5.219,1.631,9.041-1.753,13.128-4.025
	c0.845-0.469,1.499-1.563,2.592-0.978c1.094,0.586,0.328,1.817,0.613,2.701c0.608,1.891-1.727,3.925,0.412,5.911
	c0.329,0.306-1.808,1.709-3,2.332c-9.481,4.95-19.399,4.505-29.415,2.228c-9.571-2.176-19.266-3.493-29.032-2.602
	C482.254,47.035,478.644,46.817,475.032,47.356z"/>
<path fill-rule="evenodd" clip-rule="evenodd" fill="#6FBB77" d="M339.092,284.189c-0.074,3.031-0.149,6.061-0.224,9.091
	c-5.431-4.557-10.12-9.883-15.404-14.618c-12.774-11.445-26.346-21.768-40.777-30.997c1.741-2.352,0.505-5.018,0.798-7.523
	c15.661,9.263,30.055,20.209,43.58,32.373C331.233,276.264,335.367,280.005,339.092,284.189z"/>
<path fill-rule="evenodd" clip-rule="evenodd" fill="#76B82B" d="M283.483,189.883c0.012,3.941,0.022,7.882,0.034,11.823
	c-12.218-4.805-24.583-9.157-37.542-11.523c-5.665-1.035-11.366-1.92-17.154-1.976c-0.024-1.77-0.048-3.54-0.072-5.311
	c5.75-1.438,11.637-0.919,17.371-0.474c9.764,0.757,19.48,2.253,28.929,5.053C277.853,188.307,280.672,189.083,283.483,189.883z"/>
<path fill-rule="evenodd" clip-rule="evenodd" fill="#B4CC08" d="M173.214,252.656c0.025-4.934,0.05-9.868,0.075-14.802
	c3.339,0.641,6.738,1.066,9.999,1.982c3.123,0.877,5.943,0.776,8.696-0.952c5.072-3.184,10.599-5.641,15.314-9.379
	c1.415-1.122,1.763-0.539,2.326,0.674c2.231,4.811,1.667,7.877-2.675,11.055c-4.234,3.098-8.742,5.818-13.096,8.754
	C187.409,254.336,180.288,253.278,173.214,252.656z"/>
<path fill-rule="evenodd" clip-rule="evenodd" fill="#76B82B" d="M283.485,240.142c-0.293,2.505,0.943,5.171-0.798,7.523
	c-16.977-10.27-34.912-18.387-53.953-24.022c0.034-2.326,0.068-4.652,0.102-6.978c7.736,1.407,15.059,4.234,22.253,7.195
	C262.274,228.464,273.287,233.522,283.485,240.142z"/>
<path fill-rule="evenodd" clip-rule="evenodd" fill="#B4CC08" d="M228.835,216.665c-0.034,2.326-0.068,4.652-0.102,6.978
	c-6.918-1.033-13.7-2.851-20.701-3.47c-1.461-0.129-2.945-0.369-4.412-0.335c-10.175,0.236-20.106-2.532-30.269-2.415
	c0-1.429,0-2.858,0-4.288c8.793-2.11,17.766-1.967,26.666-1.545C209.792,212.053,219.484,213.531,228.835,216.665z"/>
<path fill-rule="evenodd" clip-rule="evenodd" fill="#FFD802" d="M173.353,213.136c0,1.429-0.001,2.858,0,4.288
	c-6.665,0.957-13.476,1.031-19.922,3.307c-0.629,0.222-1.332,1.023-1.826-0.076c-0.258-0.572-0.116-1.251,0.412-1.702
	c3.741-3.198,7.486-6.392,11.259-9.552c0.204-0.171,0.676-0.022,1.147-0.022c0.12,1.125-0.833,1.495-1.171,2.181
	c-0.937,1.901-0.6,2.856,1.836,3.029C168.022,214.796,170.569,213.417,173.353,213.136z"/>
<path fill-rule="evenodd" clip-rule="evenodd" fill="#B4CC08" d="M228.75,182.897c0.024,1.771,0.048,3.541,0.072,5.311
	c-8.648-1.483-17.201,0.603-25.849,0.596C211.296,185.624,219.736,183.029,228.75,182.897z"/>
<path fill-rule="evenodd" clip-rule="evenodd" fill="#724695" d="M654.184,112.433c-0.05,1.539-0.1,3.079-0.15,4.618
	c-5.883-9.717-11.463-19.628-18.526-28.613C643.033,95.453,649.579,103.19,654.184,112.433z"/>
<path fill-rule="evenodd" clip-rule="evenodd" fill="#FFD802" d="M137.552,227.476c1.99-1.068,3.979-2.136,5.97-3.204
	c-0.997,2.516-3.208,3.173-5.383,3.885C137.943,227.93,137.748,227.703,137.552,227.476z"/>
<path fill-rule="evenodd" clip-rule="evenodd" fill="#724695" d="M627.224,79.381c1.63,0.705,2.75,1.825,3.309,4.097
	c-2.1-0.802-3.081-2.127-4.035-3.486C626.74,79.788,626.982,79.584,627.224,79.381z"/>
<path fill-rule="evenodd" clip-rule="evenodd" fill="#724695" d="M625.095,78.58c-0.573-0.473-1.146-0.946-1.906-1.574
	c1.563-0.792,2.009,0.115,2.515,0.886C625.5,78.122,625.298,78.351,625.095,78.58z"/>
<path fill-rule="evenodd" clip-rule="evenodd" fill="#724695" d="M625.703,77.893c0.843,0.153,1.355,0.643,1.521,1.488
	c-0.241,0.204-0.483,0.407-0.727,0.611c-0.468-0.471-0.935-0.942-1.401-1.413C625.298,78.351,625.5,78.122,625.703,77.893z"/>
<path fill-rule="evenodd" clip-rule="evenodd" fill="#724695" d="M631.704,85.133c-0.339-0.356-0.699-0.68-0.99-1.056
	c-0.384-0.495,0.275-0.745,0.384-0.688c0.401,0.213,0.777,0.532,1.062,0.891C632.497,84.706,632.027,84.854,631.704,85.133z"/>
<path fill-rule="evenodd" clip-rule="evenodd" fill="#FFD802" d="M165.698,208.705c-0.168-0.082-0.462-0.146-0.476-0.248
	c-0.052-0.382,0.131-0.676,0.566-0.569c0.181,0.044,0.316,0.274,0.472,0.419C166.073,208.439,165.887,208.573,165.698,208.705z"/>
<path fill-rule="evenodd" clip-rule="evenodd" fill="#EDE2DA" d="M94.678,285.074c-2.857,6.78-6.543,8.31-12.007,5.227
	c-0.781-0.441-1.62-0.939-1.502-1.904c0.101-0.832,1.021-1.005,1.745-1.143C86.78,286.521,90.65,285.817,94.678,285.074z"/>
</svg>
