<?xml version="1.0" encoding="utf-8"?>
<!-- Generator: Adobe Illustrator 16.0.0, SVG Export Plug-In . SVG Version: 6.00 Build 0)  -->
<!DOCTYPE svg PUBLIC "-//W3C//DTD SVG 1.1//EN" "http://www.w3.org/Graphics/SVG/1.1/DTD/svg11.dtd">
<svg version="1.1" id="Layer_1" xmlns="http://www.w3.org/2000/svg" xmlns:xlink="http://www.w3.org/1999/xlink" x="0px" y="0px"
	 width="245.759px" height="245.759px" viewBox="0 0 245.759 245.759" enable-background="new 0 0 245.759 245.759"
	 xml:space="preserve">
<g>
	<g>
		<path fill-rule="evenodd" clip-rule="evenodd" fill="#FFFFFF" d="M190.317,246c-63.358,0-126.718,0-190.078,0
			c0-81.92,0-163.841,0-245.761c81.919,0,163.838,0,245.758,0c0,81.92,0,163.839,0,245.761c-17.039,0-34.078,0-51.119,0
			c-0.031-2.916-0.059-5.832-0.094-8.746c-0.074-6.021,0.32-11.988,1.988-17.816c0.711-2.486,0.035-4.809-2.143-6.209
			c-1.488-0.955-3.172-1.723-4.875-2.203c-5.309-1.496-10.801-1.723-16.273-2c-8.307-0.418-16.625-0.666-24.917-1.268
			c-3.844-0.279-7.693-1.01-11.436-1.947c-2.023-0.508-3.955-1.705-5.695-2.924c-1.807-1.264-1.81-2.582-0.217-4.09
			c1.09-1.029,2.322-2.01,3.666-2.648c2.373-1.127,4.829-2.141,7.34-2.914c8.816-2.713,17.938-3.52,27.089-4.111
			c8.898-0.574,17.805-1.107,26.604-2.658c6.389-1.125,12.715-2.514,18.641-5.266c3.598-1.672,6.814-3.883,9.127-7.191
			c2.307-3.299,2.896-7.006,2.65-10.963c-0.357-5.758,1.811-10.367,6.605-13.686c1.445-1.002,2.859-2.051,4.27-3.102
			c2.824-2.102,3.469-4.918,1.82-8.016c-0.393-0.736-0.84-1.464-1.367-2.107c-1.803-2.193-3.637-4.359-5.486-6.512
			c-3.414-3.968-6.906-7.871-10.236-11.906c-0.967-1.173-1.688-2.641-2.186-4.088c-0.84-2.442,0.064-4.259,2.328-5.489
			c0.801-0.435,1.594-0.933,2.273-1.535c1.553-1.378,2.158-3.135,1.301-5.079c-0.555-1.254-1.309-2.493-2.234-3.497
			c-3.104-3.364-6.973-5.706-10.982-7.825c-0.441-0.233-0.881-0.466-1.342-0.709c4.67-8.173,5.639-16.725,3.611-25.652
			c-1.914-8.418-9.072-20.581-13.146-22.383c0.213,0.229,0.346,0.375,0.482,0.516c4.613,4.821,7.721,10.565,10.119,16.717
			c1.104,2.83,1.314,5.688-1.152,8.001c-0.965,0.904-2.209,1.506-3.305,2.275c-0.779,0.547-1.525,1.143-2.418,1.814
			c-0.748-1.994-1.391-3.702-1.891-5.036c0.191,1.962,0.77,4.305,0.541,6.565c-0.234,2.294-1.266,4.506-2.027,7.024
			c-0.555-1.668-0.994-3.071-1.486-4.455c-4.305-12.079-10.764-22.754-20.633-31.119c-7.195-6.097-15.176-10.689-24.771-11.737
			c-7.431-0.812-14.257,0.629-19.941,5.839c-1.354,1.241-2.636,2.561-3.944,3.85c-0.417,0.41-1.014,0.939-1.306,0.138
			c-0.577-1.588-1.95-1.7-3.214-2.129c-5.38-1.827-10.797-3.51-16.439-4.331c-2.57-0.374-5.148-0.691-7.723-1.044
			c-0.75-0.103-1.305-0.34-1.07-1.316c0.357-1.491,0.27-1.6-1.209-1.918c-0.467-0.101-0.947-0.161-1.426-0.182
			c-2.796-0.122-5.592-0.255-8.39-0.333c-9.604-0.265-19.153-0.171-28.663,1.746C45.19,35.672,30.047,42.09,16.1,51.439
			c-3.146,2.109-5.657,4.764-7.3,8.243c-2.884,6.107-3.25,12.555-2.149,19.01c1.107,6.492,2.803,12.886,4.327,19.302
			c0.193,0.811,0.903,1.501,1.386,2.239c0.213,0.325,0.544,0.598,0.673,0.949c2.192,5.996,6.151,10.733,10.878,14.827
			c1.415,1.226,1.881,2.182,1.581,4.075c-1.169,7.395,0.277,14.495,3.108,21.329c6.131,14.803,16.22,26.451,29.166,35.625
			c7.983,5.658,16.513,10.271,26.711,10.543c5.078,0.137,10.129,0.465,15.093-1.148c5.919-1.924,11.179-4.957,15.806-9.059
			c2.316-2.053,4.798-3.525,7.711-4.74c8.926-3.721,15.497-10.033,19.334-19.115c3.24-7.666,3.209-15.417,1.143-23.261
			c-2.239-8.495-6.303-16.116-11.52-23.157c-9.448-12.749-21.145-22.741-35.755-29.125c-7.464-3.261-15.232-5.094-23.457-4.292
			c-2.492,0.243-4.921,0.772-6.881,1.57c2.261,0,4.854-0.109,7.438,0.021c7.813,0.393,15.066,2.866,21.939,6.412
			c17.33,8.941,30.67,22.042,40.123,39.083c2.766,4.985,4.844,10.255,6.025,15.859c0.243,1.154-0.145,1.738-1.26,1.982
			c-1.47,0.323-2.951,0.621-4.385,1.066c-1.561,0.484-2.367,0.419-3.313-0.98c-1-1.481-1.83-3.086-2.641-4.686
			c-6.493-12.829-15.673-23.51-26.433-32.894c-8.563-7.468-18.111-13.276-29.114-16.444c-6.66-1.918-13.394-2.691-20.242-0.944
			c-0.564,0.144-1.199,0.019-2.142,0.019c0.552-0.848,0.915-1.406,1.279-1.964c-0.059-0.05-0.117-0.101-0.176-0.151
			c-1.468,1.291-2.935,2.582-4.401,3.873c1.568-0.07,2.972-0.54,4.375-0.537c3.465,0.006,6.93,0.292,10.396,0.351
			c7.906,0.134,15.199,2.501,22.1,6.141c15.118,7.976,26.879,19.538,35.881,33.989c2.635,4.23,4.713,8.719,6.059,13.525
			c0.156,0.561,0.168,1.283-0.054,1.805c-0.509,1.197-1.325,2.27-1.794,3.479c-1.086,2.807-2.83,4.523-6.008,4.869
			c-2.105,0.23-4.325,0.727-6.174,1.705c-3.041,1.613-5.828,3.707-8.712,5.615c-2.464,1.631-5.095,2.414-7.926,1.186
			c-2.191-0.949-4.351-2.018-6.399-3.246c-4.549-2.727-8.007-6.717-11.697-10.428c-7.1-7.145-13.936-14.574-22.063-20.618
			c-3.699-2.751-7.562-5.196-12.025-6.585c-3.164-0.984-6.32-2.024-9.391-3.263c-2.664-1.075-3.768-3.481-3.065-6.278
			c0.286-1.142,0.737-2.317,1.403-3.275c2.557-3.678,5.93-6.335,10.238-7.743c3.938-1.286,7.936-0.85,11.888-0.296
			c3.108,0.435,5.873,0.08,8.33-1.977c0.61-0.51,1.317-0.905,1.985-1.345c1.917-1.265,2.123-2.196,1.012-4.078
			c-1.719,1-3.447,1.983-5.151,3.008c-0.951,0.572-1.896,0.683-2.977,0.381c-2.73-0.763-5.485-1.438-8.226-2.165
			c-2.694-0.714-5.42-0.615-8.233-0.491c1.149-0.621,2.299-1.242,3.448-1.862c-0.066-0.113-0.133-0.226-0.198-0.339
			c-2.289,1.348-4.63,2.617-6.853,4.065c-2.307,1.503-4.064,3.563-5.25,6.09c-0.234-0.202-0.397-0.342-0.598-0.515
			c-0.104,3.26-5.506,5.288-8.104,3.511c-0.535-0.367-1.056-1.216-1.042-1.831c0.03-1.375-0.597-2.11-1.667-2.781
			c-4.903-3.071-8.759-7.213-11.809-12.076c-1.002-1.598-1.582-3.476-2.239-5.269c-0.409-1.116,0.035-1.598,1.228-1.632
			c1.011-0.029,1.4,0.64,1.629,1.458c0.768,2.75,2.265,5.099,3.998,7.319c0.228,0.291,0.507,0.542,0.872,0.926
			c0.206-0.567,0.369-0.925,0.467-1.301c0.878-3.381,2.854-5.965,5.497-8.222c8.968-7.66,19.224-12.992,30.146-17.241
			c13.905-5.409,28.236-7.387,43.066-5.829c1.949,0.205,3.901,0.377,5.855,0.509c0.318,0.021,0.875-0.179,0.947-0.4
			c0.242-0.734,0.719-0.595,1.24-0.525c7.223,0.969,14.305,2.395,20.852,5.828c0.835,0.438,1.08,0.814,1.086,1.669
			c0.043,6.019,1.201,11.833,3.291,17.471c3.982,10.739,10.611,19.631,19.006,27.296c8.858,8.088,19.146,11.951,31.214,10.614
			c4.822-0.534,9.559-1.553,13.648-4.177c4.301-2.759,7.932-6.38,10.492-10.868c1.334-2.338,2.754-4.548,4.648-6.476
			c1.076-1.094,1.93-2.407,2.914-3.662c4.465,2.353,8.76,4.826,12.125,8.586c2.74,3.062,2.385,4.906-1.205,6.886
			c-3.381,1.865-4.475,4.656-3.176,8.279c0.336,0.935,0.746,1.875,1.303,2.689c1.354,1.977,2.701,3.975,4.248,5.796
			c3.752,4.419,7.648,8.715,11.412,13.125c0.92,1.08,1.691,2.342,2.285,3.633c0.826,1.803,0.346,3.109-1.275,4.262
			c-1.369,0.973-2.721,1.971-4.119,2.898c-6.096,4.043-8.566,9.824-8.057,16.969c0.279,3.895-1.004,7.141-3.65,9.912
			c-3.164,3.313-7.172,5.135-11.463,6.469c-10.512,3.268-21.373,4.246-32.277,5.023c-8.014,0.57-16.037,1.109-24.017,2.016
			c-6.082,0.689-12.037,2.182-17.666,4.719c-2.422,1.092-4.702,2.406-6.495,4.424c-2.138,2.408-2.36,5.293-0.292,7.709
			c1.143,1.334,2.574,2.553,4.111,3.391c4.396,2.398,9.275,3.262,14.191,3.641c8.092,0.625,16.202,0.973,24.298,1.547
			c4.941,0.35,9.889,0.764,14.795,1.426c2.174,0.293,4.281,1.201,6.365,1.975c0.943,0.35,1.244,1.143,0.902,2.264
			c-1.564,5.125-2.145,10.408-2.221,15.746C190.28,238.243,190.321,242.122,190.317,246z M175.077,26.502
			c-1.107,0.646-1.949,1.179-2.834,1.63c-0.367,0.188-0.828,0.297-1.24,0.281c-2.395-0.092-4.783-0.308-7.178-0.336
			c-3.244-0.039-6.471,0.229-9.585,1.247c-0.564,0.185-1.098,0.469-1.646,0.707c1.039,0.162,1.99,0.096,2.94,0.012
			c3.67-0.325,7.248,0.33,10.822,1.021c3.133,0.606,6.107,0.303,8.721-1.41C175.077,28.616,175.077,27.673,175.077,26.502z"/>
		<path fill-rule="evenodd" clip-rule="evenodd" d="M190.317,246c0.004-3.879-0.037-7.758,0.02-11.635
			c0.076-5.338,0.656-10.621,2.221-15.746c0.342-1.121,0.041-1.914-0.902-2.264c-2.084-0.773-4.191-1.682-6.365-1.975
			c-4.906-0.662-9.854-1.076-14.795-1.426c-8.096-0.574-16.206-0.922-24.298-1.547c-4.916-0.379-9.795-1.242-14.191-3.641
			c-1.537-0.838-2.969-2.057-4.111-3.391c-2.068-2.416-1.846-5.301,0.292-7.709c1.793-2.018,4.073-3.332,6.495-4.424
			c5.629-2.537,11.584-4.029,17.666-4.719c7.979-0.906,16.003-1.445,24.017-2.016c10.904-0.777,21.766-1.756,32.277-5.023
			c4.291-1.334,8.299-3.156,11.463-6.469c2.646-2.771,3.93-6.018,3.65-9.912c-0.51-7.145,1.961-12.926,8.057-16.969
			c1.398-0.928,2.75-1.926,4.119-2.898c1.621-1.152,2.102-2.459,1.275-4.262c-0.594-1.291-1.365-2.553-2.285-3.633
			c-3.764-4.409-7.66-8.705-11.412-13.125c-1.547-1.822-2.895-3.819-4.248-5.796c-0.557-0.814-0.967-1.754-1.303-2.689
			c-1.299-3.623-0.205-6.414,3.176-8.279c3.59-1.979,3.945-3.824,1.205-6.886c-3.365-3.76-7.66-6.233-12.125-8.586
			c-0.984,1.255-1.838,2.567-2.914,3.662c-1.895,1.928-3.314,4.138-4.648,6.476c-2.561,4.488-6.191,8.109-10.492,10.868
			c-4.09,2.624-8.826,3.643-13.648,4.177c-12.068,1.336-22.355-2.526-31.214-10.614c-8.395-7.665-15.023-16.558-19.006-27.296
			c-2.09-5.638-3.248-11.452-3.291-17.471c-0.006-0.855-0.251-1.231-1.086-1.669c-6.547-3.433-13.629-4.858-20.852-5.828
			c-0.521-0.07-0.998-0.209-1.24,0.525c-0.072,0.221-0.629,0.421-0.947,0.4c-1.954-0.131-3.906-0.304-5.855-0.509
			c-14.83-1.558-29.161,0.42-43.066,5.829c-10.923,4.249-21.179,9.581-30.146,17.241c-2.643,2.257-4.619,4.841-5.497,8.222
			c-0.098,0.375-0.261,0.734-0.467,1.301c-0.365-0.384-0.644-0.635-0.872-0.926c-1.733-2.22-3.23-4.569-3.998-7.319
			c-0.229-0.818-0.618-1.487-1.629-1.458c-1.193,0.034-1.636,0.516-1.228,1.632c0.657,1.792,1.237,3.67,2.239,5.269
			c3.049,4.862,6.905,9.005,11.809,12.076c1.07,0.67,1.697,1.406,1.667,2.781c-0.014,0.615,0.507,1.464,1.042,1.831
			c2.598,1.777,7.999-0.251,8.104-3.511c0.2,0.173,0.363,0.313,0.598,0.515c1.186-2.528,2.943-4.587,5.25-6.09
			c2.223-1.448,4.563-2.717,6.853-4.065c0.065,0.113,0.132,0.226,0.198,0.339c-1.149,0.621-2.299,1.241-3.448,1.862
			c2.813-0.124,5.539-0.223,8.233,0.491c2.74,0.726,5.495,1.402,8.226,2.165c1.081,0.302,2.025,0.191,2.977-0.381
			c1.704-1.025,3.433-2.007,5.151-3.008c1.111,1.881,0.905,2.813-1.012,4.078c-0.668,0.44-1.375,0.835-1.985,1.345
			c-2.457,2.057-5.222,2.412-8.33,1.977c-3.952-0.553-7.95-0.99-11.888,0.296c-4.309,1.407-7.682,4.064-10.238,7.743
			c-0.666,0.958-1.117,2.134-1.403,3.275c-0.702,2.797,0.401,5.203,3.065,6.278c3.07,1.238,6.227,2.278,9.391,3.263
			c4.464,1.389,8.326,3.834,12.025,6.585c8.127,6.043,14.963,13.473,22.063,20.618c3.69,3.711,7.148,7.701,11.697,10.428
			c2.049,1.229,4.208,2.297,6.399,3.246c2.831,1.229,5.462,0.445,7.926-1.186c2.884-1.908,5.671-4.002,8.712-5.615
			c1.849-0.979,4.068-1.475,6.174-1.705c3.178-0.346,4.922-2.063,6.008-4.869c0.469-1.209,1.285-2.281,1.794-3.479
			c0.222-0.521,0.21-1.244,0.054-1.805c-1.346-4.807-3.424-9.295-6.059-13.525c-9.002-14.451-20.763-26.013-35.881-33.989
			c-6.9-3.64-14.193-6.006-22.1-6.141c-3.467-0.059-6.932-0.345-10.396-0.351c-1.403-0.002-2.807,0.467-4.375,0.537
			c1.467-1.291,2.934-2.582,4.401-3.873c0.059,0.05,0.117,0.101,0.176,0.151c-0.364,0.559-0.728,1.117-1.279,1.964
			c0.942,0,1.577,0.125,2.142-0.019c6.849-1.747,13.582-0.974,20.242,0.944c11.003,3.168,20.551,8.976,29.114,16.444
			c10.76,9.383,19.939,20.065,26.433,32.894c0.811,1.6,1.641,3.204,2.641,4.686c0.945,1.399,1.752,1.465,3.313,0.98
			c1.434-0.445,2.915-0.743,4.385-1.066c1.115-0.244,1.503-0.828,1.26-1.982c-1.182-5.604-3.26-10.874-6.025-15.859
			c-9.453-17.041-22.793-30.142-40.123-39.083c-6.873-3.546-14.127-6.019-21.939-6.412c-2.584-0.13-5.178-0.021-7.438-0.021
			c1.96-0.798,4.389-1.327,6.881-1.57c8.225-0.802,15.993,1.032,23.457,4.292c14.61,6.384,26.307,16.376,35.755,29.125
			c5.217,7.041,9.28,14.662,11.52,23.157c2.066,7.844,2.098,15.595-1.143,23.261c-3.837,9.082-10.408,15.395-19.334,19.115
			c-2.913,1.215-5.395,2.688-7.711,4.74c-4.627,4.102-9.887,7.135-15.806,9.059c-4.964,1.613-10.015,1.285-15.093,1.148
			c-10.198-0.271-18.728-4.885-26.711-10.543c-12.946-9.174-23.035-20.822-29.166-35.625c-2.831-6.834-4.277-13.934-3.108-21.329
			c0.3-1.893-0.166-2.85-1.581-4.075c-4.728-4.093-8.687-8.831-10.878-14.827c-0.128-0.351-0.46-0.624-0.673-0.949
			c-0.483-0.738-1.193-1.428-1.386-2.239c-1.524-6.416-3.22-12.81-4.327-19.302c-1.102-6.456-0.735-12.903,2.149-19.01
			c1.643-3.479,4.154-6.134,7.3-8.243C30.047,42.09,45.19,35.672,61.695,32.344c9.51-1.917,19.059-2.01,28.663-1.746
			c2.798,0.077,5.594,0.21,8.39,0.333c0.479,0.021,0.959,0.082,1.426,0.182c1.479,0.318,1.566,0.428,1.209,1.918
			c-0.234,0.976,0.32,1.213,1.07,1.316c2.574,0.353,5.152,0.67,7.723,1.044c5.643,0.82,11.06,2.504,16.439,4.331
			c1.264,0.429,2.637,0.541,3.214,2.129c0.292,0.801,0.889,0.272,1.306-0.138c1.309-1.289,2.59-2.609,3.944-3.85
			c5.685-5.209,12.511-6.65,19.941-5.839c9.596,1.048,17.576,5.641,24.771,11.737c9.869,8.364,16.328,19.04,20.633,31.119
			c0.492,1.384,0.932,2.787,1.486,4.455c0.762-2.518,1.793-4.73,2.027-7.024c0.229-2.26-0.35-4.603-0.541-6.565
			c0.5,1.334,1.143,3.042,1.891,5.036c0.893-0.671,1.639-1.267,2.418-1.814c1.096-0.769,2.34-1.371,3.305-2.275
			c2.467-2.313,2.256-5.171,1.152-8.001c-2.398-6.151-5.506-11.896-10.119-16.717c-0.137-0.142-0.27-0.287-0.482-0.516
			c4.074,1.802,11.232,13.964,13.146,22.383c2.027,8.927,1.059,17.479-3.611,25.652c0.461,0.244,0.9,0.477,1.342,0.709
			c4.01,2.119,7.879,4.461,10.982,7.825c0.926,1.004,1.68,2.243,2.234,3.497c0.857,1.943,0.252,3.701-1.301,5.079
			c-0.68,0.603-1.473,1.1-2.273,1.535c-2.264,1.23-3.168,3.047-2.328,5.489c0.498,1.448,1.219,2.916,2.186,4.088
			c3.33,4.036,6.822,7.938,10.236,11.906c1.85,2.152,3.684,4.318,5.486,6.512c0.527,0.644,0.975,1.371,1.367,2.107
			c1.648,3.098,1.004,5.914-1.82,8.016c-1.41,1.051-2.824,2.1-4.27,3.102c-4.795,3.318-6.963,7.928-6.605,13.686
			c0.246,3.957-0.344,7.664-2.65,10.963c-2.313,3.309-5.529,5.52-9.127,7.191c-5.926,2.752-12.252,4.141-18.641,5.266
			c-8.799,1.551-17.705,2.084-26.604,2.658c-9.15,0.592-18.272,1.398-27.089,4.111c-2.511,0.773-4.967,1.787-7.34,2.914
			c-1.344,0.639-2.576,1.619-3.666,2.648c-1.593,1.508-1.59,2.826,0.217,4.09c1.74,1.219,3.672,2.416,5.695,2.924
			c3.742,0.938,7.592,1.668,11.436,1.947c8.292,0.602,16.61,0.85,24.917,1.268c5.473,0.277,10.965,0.504,16.273,2
			c1.703,0.48,3.387,1.248,4.875,2.203c2.178,1.4,2.854,3.723,2.143,6.209c-1.668,5.828-2.063,11.795-1.988,17.816
			c0.035,2.914,0.063,5.83,0.094,8.746C193.358,246,191.839,246,190.317,246z M25.815,107.123c0.893,1.488,2.192,1.51,3.123,1.292
			c0.759-0.178,1.311-1.241,1.954-1.912c-0.085-0.104-0.17-0.209-0.255-0.314C29.117,106.483,27.596,106.778,25.815,107.123z"/>
		<path fill-rule="evenodd" clip-rule="evenodd" d="M175.077,26.502c0,1.17,0,2.114,0,3.152c-2.613,1.713-5.588,2.016-8.721,1.41
			c-3.574-0.691-7.152-1.347-10.822-1.021c-0.95,0.084-1.901,0.15-2.94-0.012c0.549-0.238,1.082-0.521,1.646-0.707
			c3.114-1.018,6.341-1.286,9.585-1.247c2.395,0.028,4.783,0.244,7.178,0.336c0.412,0.016,0.873-0.093,1.24-0.281
			C173.128,27.681,173.97,27.148,175.077,26.502z"/>
		<path fill-rule="evenodd" clip-rule="evenodd" fill="#FFFFFF" d="M25.815,107.123c1.78-0.345,3.302-0.64,4.822-0.935
			c0.085,0.105,0.17,0.21,0.255,0.314c-0.644,0.671-1.195,1.734-1.954,1.912C28.008,108.632,26.708,108.611,25.815,107.123z"/>
	</g>
</g>
</svg>
